<svg fill="none" height="56" viewBox="0 0 56 56" width="56" xmlns="http://www.w3.org/2000/svg" xmlns:xlink="http://www.w3.org/1999/xlink"><filter id="a" color-interpolation-filters="sRGB" filterUnits="userSpaceOnUse" height="56" width="56" x="0" y="0"><feFlood flood-opacity="0" result="BackgroundImageFix"/><feColorMatrix in="SourceAlpha" result="hardAlpha" type="matrix" values="0 0 0 0 0 0 0 0 0 0 0 0 0 0 0 0 0 0 127 0"/><feOffset/><feGaussianBlur stdDeviation="2"/><feComposite in2="hardAlpha" operator="out"/><feColorMatrix type="matrix" values="0 0 0 0 0.976471 0 0 0 0 1 0 0 0 0 0.482353 0 0 0 0.45 0"/><feBlend in2="BackgroundImageFix" mode="normal" result="effect1_dropShadow_116_244"/><feBlend in="SourceGraphic" in2="effect1_dropShadow_116_244" mode="normal" result="shape"/></filter><circle cx="28" cy="28" fill="#271054" r="28"/><g filter="url(#a)"><path clip-rule="evenodd" d="m28 52c13.2548 0 24-10.7452 24-24s-10.7452-24-24-24-24 10.7452-24 24 10.7452 24 24 24zm3-39c0 2.2091-1.3431 4-3 4s-3-1.7909-3-4 1.3431-4 3-4 3 1.7909 3 4zm10.1214 6.1213c1.5621-1.5621 1.8786-3.7782.7071-4.9497-1.1716-1.1716-3.3877-.855-4.9498.7071s-1.8787 3.7781-.7071 4.9497 3.3877.855 4.9498-.7071zm-13.1214 12.8787c2.2091 0 4-1.7909 4-4s-1.7909-4-4-4-4 1.7909-4 4 1.7909 4 4 4zm-8.1715 4.1716c1.1715 1.1715.855 3.3876-.7071 4.9497s-3.7782 1.8787-4.9498.7071-.855-3.3876.7071-4.9497 3.7782-1.8787 4.9498-.7071zm28.1715-8.1716c0 1.6569-1.7909 3-4 3s-4-1.3431-4-3 1.7909-3 4-3 4 1.3431 4 3zm-17 16c0 2.2091-1.3431 4-3 4s-3-1.7909-3-4 1.3431-4 3-4 3 1.7909 3 4zm-15-16c0 1.6569-1.7909 3-4 3-2.20914 0-4-1.3431-4-3s1.79086-3 4-3c2.2091 0 4 1.3431 4 3z" fill="#f9ff7b" fill-rule="evenodd"/></g></svg>